HIERARCHY
ROOT root
{
	OFFSET 0.000000 0.000000 0.000000
	CHANNELS 6 Xposition Yposition Zposition Zrotation Yrotation Xrotation
	JOINT lhip
	{
		OFFSET 0.058581 -0.082280 -0.017664
		CHANNELS 3 Zrotation Yrotation Xrotation
		JOINT lknee
		{
			OFFSET 0.043451 -0.386469 0.008037
			CHANNELS 3 Zrotation Yrotation Xrotation
			JOINT lankle
			{
				OFFSET -0.014790 -0.426874 -0.037428
				CHANNELS 3 Zrotation Yrotation Xrotation
				JOINT ltoe
				{
					OFFSET 0.041054 -0.060286 0.122042
					CHANNELS 3 Zrotation Yrotation Xrotation
					End Site
					{
						OFFSET 0.000000 0.000000 0.000000
					}
				}
			}
		}
	}
	JOINT rhip
	{
		OFFSET -0.060310 -0.090513 -0.013543
		CHANNELS 3 Zrotation Yrotation Xrotation
		JOINT rknee
		{
			OFFSET -0.043257 -0.383688 -0.004843
			CHANNELS 3 Zrotation Yrotation Xrotation
			JOINT rankle
			{
				OFFSET 0.019056 -0.420046 -0.034562
				CHANNELS 3 Zrotation Yrotation Xrotation
				JOINT rtoe
				{
					OFFSET -0.034840 -0.062106 0.130323
					CHANNELS 3 Zrotation Yrotation Xrotation
					End Site
					{
						OFFSET 0.000000 0.000000 0.000000
					}
				}
			}
		}
	}
	JOINT lowerback
	{
		OFFSET 0.004439 0.124404 -0.038385
		CHANNELS 3 Zrotation Yrotation Xrotation
		JOINT upperback
		{
			OFFSET 0.004488 0.137956 0.026820
			CHANNELS 3 Zrotation Yrotation Xrotation
			JOINT chest
			{
				OFFSET -0.002265 0.056032 0.002855
				CHANNELS 3 Zrotation Yrotation Xrotation
				JOINT lowerneck
				{
					OFFSET -0.013390 0.211636 -0.033468
					CHANNELS 3 Zrotation Yrotation Xrotation
					JOINT upperneck
					{
						OFFSET 0.010113 0.088937 0.050410
						CHANNELS 3 Zrotation Yrotation Xrotation
						End Site
						{
							OFFSET 0.000000 0.000000 0.000000
						}
					}
				}
				JOINT lclavicle
				{
					OFFSET 0.071702 0.114000 -0.018898
					CHANNELS 3 Zrotation Yrotation Xrotation
					JOINT lshoulder
					{
						OFFSET 0.122921 0.045205 -0.019046
						CHANNELS 3 Zrotation Yrotation Xrotation
						JOINT lelbow
						{
							OFFSET 0.255332 -0.015649 -0.022946
							CHANNELS 3 Zrotation Yrotation Xrotation
							JOINT lwrist
							{
								OFFSET 0.265709 0.012698 -0.007375
								CHANNELS 3 Zrotation Yrotation Xrotation
								End Site
								{
									OFFSET 0.000000 0.000000 0.000000
								}
							}
						}
					}
				}
				JOINT rclavicle
				{
					OFFSET -0.082954 0.112472 -0.023707
					CHANNELS 3 Zrotation Yrotation Xrotation
					JOINT rshoulder
					{
						OFFSET -0.113228 0.046853 -0.008472
						CHANNELS 3 Zrotation Yrotation Xrotation
						JOINT relbow
						{
							OFFSET -0.260127 -0.014369 -0.031269
							CHANNELS 3 Zrotation Yrotation Xrotation
							JOINT rwrist
							{
								OFFSET -0.269108 0.006794 -0.006027
								CHANNELS 3 Zrotation Yrotation Xrotation
								End Site
								{
									OFFSET 0.000000 0.000000 0.000000
								}
							}
						}
					}
				}
			}
		}
	}
}
MOTION
Frames: 7
Frame Time: 0.033333
1.283422 0.694371 0.995386 -85.277026 -0.434718 81.773264 -2.686913 -2.027165 3.335239 -0.448691 -9.614069 8.088667 2.963080 9.909576 -14.240828 0.000000 -0.000000 0.000000 2.259244 -3.382546 4.654778 -4.146712 -2.841964 8.835824 2.658458 -9.184586 -16.393612 0.000000 -0.000000 0.000000 0.402178 4.502476 11.596019 -3.357160 0.021601 -1.173382 0.353730 1.062990 -0.201177 1.863365 29.826740 -7.606392 -0.804062 26.760151 -4.072806 -26.433977 -5.875648 0.054360 -51.856263 -6.436380 10.102887 -3.132687 -20.369765 14.213617 -6.455091 -2.450908 -1.433763 21.756426 4.275751 4.686292 63.118094 1.975388 19.550985 -4.153148 27.302231 16.038271 7.793998 -0.268724 3.525407 
1.283246 0.694378 0.995408 -84.995525 -0.458079 81.912299 -2.751786 -2.329181 3.031041 -0.485628 -9.723012 8.372743 2.838116 9.974902 -14.290777 0.000000 -0.000000 0.000000 2.204802 -3.128499 4.543133 -3.974958 -3.094882 8.871631 2.648086 -9.421256 -16.455696 0.000000 -0.000000 0.000000 0.334271 4.484175 11.702392 -3.346701 0.055267 -1.470648 0.337606 1.122085 -0.179603 1.879000 29.918057 -7.761142 -0.879036 26.725412 -4.069015 -26.500684 -5.599756 -0.050647 -51.724079 -6.297908 10.144286 -2.987696 -20.384904 13.903303 -6.651637 -2.377871 -1.671529 21.787856 4.405801 4.627237 62.992149 1.919713 20.101244 -3.937427 27.435396 16.073308 7.378853 -0.318297 2.626911 
1.282798 0.694256 0.995038 -84.670842 -0.302905 82.168933 -2.598530 -2.540582 2.629405 -0.533228 -9.755556 8.545914 2.866755 9.999227 -14.483063 0.000000 -0.000000 0.000000 2.387752 -3.103127 4.279066 -3.949098 -3.271622 8.964700 2.579955 -9.641952 -16.470968 0.000000 -0.000000 0.000000 0.542522 4.401673 11.463896 -3.313471 0.078414 -1.624869 0.254773 1.102918 -0.067393 1.966869 29.853284 -7.749607 -0.905825 26.780336 -3.921350 -26.477874 -5.369012 -0.246510 -51.802346 -6.204166 10.130698 -2.993189 -20.388784 13.773311 -6.701630 -2.101209 -1.154135 21.662401 4.221938 4.542639 62.849880 2.120601 20.340882 -3.462908 27.489559 17.610067 8.997959 -1.120842 3.771497 
1.282185 0.694348 0.994885 -84.536319 -0.299119 82.149486 -2.576373 -2.501251 2.670227 -0.548808 -9.855681 8.523704 2.709832 9.913526 -14.427608 0.000000 -0.000000 0.000000 2.476831 -3.035790 4.348328 -4.020621 -3.347299 8.963715 2.573522 -9.772379 -16.486461 0.000000 -0.000000 0.000000 0.599629 4.407461 11.756404 -3.405365 0.159076 -1.850455 0.248771 1.275162 -0.056552 1.799749 29.726126 -7.839051 -0.901176 26.734371 -4.015079 -26.437150 -5.363606 -0.305292 -51.828740 -6.193382 9.971500 -2.766170 -20.266961 13.881256 -6.343884 -2.185943 -0.594715 21.617493 4.198142 4.350351 62.912864 1.967918 20.168073 -3.370304 27.628607 18.047877 8.831913 -0.959172 4.133805 
1.280998 0.694259 0.994901 -84.256650 -0.227099 82.209435 -2.503636 -2.663196 2.641034 -0.580571 -9.958749 8.576622 2.734170 9.861437 -14.446083 0.000000 -0.000000 0.000000 2.527109 -3.222242 4.468875 -3.956446 -3.373478 8.757960 2.516804 -9.885052 -16.472329 0.000000 -0.000000 0.000000 0.525476 4.429537 11.454620 -3.304478 0.042661 -1.612993 0.317969 1.292238 -0.142901 1.819873 29.675383 -7.716932 -0.847078 26.759813 -3.905051 -26.353764 -5.396705 -0.159825 -51.896194 -6.216660 9.948085 -2.615079 -20.260381 13.785302 -7.042853 -2.524999 -1.347378 21.555480 4.254757 4.469422 62.943828 1.828416 20.190700 -3.505397 27.704665 18.141666 9.249602 -0.924880 4.067011 
1.280019 0.694065 0.994875 -84.165516 -0.235886 82.213788 -2.518373 -2.677231 2.708396 -0.525349 -10.103239 8.502599 2.700384 9.821740 -14.471951 0.000000 -0.000000 0.000000 2.512495 -3.280918 4.560742 -3.934784 -3.382461 8.659721 2.539525 -9.887170 -16.456372 0.000000 -0.000000 0.000000 0.447783 4.490792 11.372331 -3.297838 0.011961 -1.429695 0.393036 1.210614 -0.160390 1.690362 29.587431 -7.629836 -0.945795 26.740723 -4.191080 -26.241844 -5.487897 -0.111638 -51.953870 -6.204842 10.034526 -2.492649 -20.501856 13.883208 -6.802857 -2.473928 -1.559840 21.489312 4.425679 4.447422 62.900671 1.822829 20.230171 -3.308829 27.558299 18.283909 8.917944 -0.895558 4.199284 
1.279484 0.694238 0.994822 -84.272180 -0.235909 82.250472 -2.480702 -2.651491 2.700350 -0.546131 -10.093873 8.490735 2.705096 9.824400 -14.380837 0.000000 -0.000000 0.000000 2.504993 -3.305071 4.499480 -3.881040 -3.330697 8.712557 2.513501 -9.660497 -16.562111 0.000000 -0.000000 0.000000 0.456024 4.560033 11.320034 -3.301352 0.068379 -1.380841 0.362594 1.107315 -0.100667 1.683342 29.596277 -7.677243 -0.992604 26.597003 -4.102204 -26.197633 -5.500485 -0.162654 -51.876200 -6.252721 10.170775 -2.684522 -20.731252 13.988880 -6.548932 -2.285952 -1.476420 21.462203 4.431465 4.433130 62.924974 1.960416 20.287700 -3.200757 27.545677 18.275650 8.977348 -1.114506 3.961936 
